<svg aria-hidden="true" style="position: absolute; width: 0; height: 0; overflow: hidden;" version="1.1" xmlns="http://www.w3.org/2000/svg" xmlns:xlink="http://www.w3.org/1999/xlink">
<defs>
<symbol id="icon-collections" viewBox="0 0 32 32">
<path fill="#46f4db" style="fill: var(--color1, #46f4db)" d="M29.333 21.333v-16c0-1.467-1.2-2.667-2.667-2.667h-16c-1.467 0-2.667 1.2-2.667 2.667v16c0 1.467 1.2 2.667 2.667 2.667h16c1.467 0 2.667-1.2 2.667-2.667zM14.666 16l2.707 3.613 3.96-4.947 5.333 6.667h-16l4-5.333zM2.667 8v18.667c0 1.467 1.2 2.667 2.667 2.667h18.667v-2.667h-18.667v-18.667h-2.667z"></path>
</symbol>
<symbol id="icon-verified" viewBox="0 0 32 32">
<path fill="#46f4db" style="fill: var(--color1, #46f4db)" d="M30.666 16l-3.253-3.72 0.453-4.92-4.813-1.093-2.52-4.267-4.533 1.947-4.533-1.947-2.52 4.253-4.813 1.080 0.453 4.933-3.253 3.733 3.253 3.72-0.453 4.933 4.813 1.093 2.52 4.253 4.533-1.96 4.533 1.947 2.52-4.253 4.813-1.093-0.453-4.92 3.253-3.72zM13.453 22.293l-5.067-5.080 1.973-1.973 3.093 3.107 7.8-7.827 1.973 1.973-9.773 9.8z"></path>
</symbol>
<symbol id="icon-insert_emoticon" viewBox="0 0 32 32">
<path fill="#46f4db" style="fill: var(--color1, #46f4db)" d="M15.987 2.667c-7.36 0-13.32 5.973-13.32 13.333s5.96 13.333 13.32 13.333c7.373 0 13.347-5.973 13.347-13.333s-5.973-13.333-13.347-13.333zM16 26.667c-5.893 0-10.667-4.773-10.667-10.667s4.773-10.667 10.667-10.667c5.893 0 10.667 4.773 10.667 10.667s-4.773 10.667-10.667 10.667zM20.667 14.667c1.107 0 2-0.893 2-2s-0.893-2-2-2-2 0.893-2 2c0 1.107 0.893 2 2 2zM11.334 14.667c1.107 0 2-0.893 2-2s-0.893-2-2-2c-1.107 0-2 0.893-2 2s0.893 2 2 2zM16 23.333c3.107 0 5.747-1.947 6.813-4.667h-13.627c1.067 2.72 3.707 4.667 6.813 4.667z"></path>
</symbol>
<symbol id="icon-untitled" viewBox="0 0 32 32">
<path d="M18.726 13.274h13.274v5.453h-13.274v13.274h-5.453v-13.274h-13.274v-5.453h13.274v-13.274h5.453v13.274z"></path>
</symbol>
<symbol id="icon-Check" viewBox="0 0 32 32">
<path fill="none" stroke="#fff" style="stroke: var(--color2, #fff)" stroke-linejoin="miter" stroke-linecap="butt" stroke-miterlimit="4" stroke-width="2.2857" d="M1.143 1.143h29.714v29.714h-29.714v-29.714z"></path>
<path fill="none" stroke="#46f4db" style="stroke: var(--color1, #46f4db)" stroke-linejoin="miter" stroke-linecap="butt" stroke-miterlimit="4" stroke-width="4.5714" d="M25.027 9.331l-11.314 11.314-6.465-6.465"></path>
</symbol>
<symbol id="icon-Vector-3" viewBox="0 0 80 32">
<path d="M5.594 19.386h-5.383l7.316-19.386h5.521l7.316 19.386h-5.383l-1.242-3.462h-6.902l-1.242 3.462zM8.078 12.324h4.417l-2.209-6.508-2.209 6.508z"></path>
<path d="M33.627 0h4.969v14.124c0 1.939-0.442 3.351-1.325 4.237-0.865 0.868-2.264 1.302-4.196 1.302h-6.35c-1.933 0-3.34-0.434-4.224-1.302-0.865-0.886-1.297-2.299-1.297-4.237v-14.124h4.969v14.124c0 1.108 0.552 1.662 1.656 1.662h4.141c1.104 0 1.656-0.554 1.656-1.662v-14.124z"></path>
<path d="M41.909 0h11.595c1.933 0 3.331 0.443 4.196 1.329 0.883 0.868 1.325 2.271 1.325 4.21v2.492c0 1.532-0.258 2.723-0.773 3.573-0.497 0.849-1.297 1.412-2.402 1.689l3.451 6.093h-5.383l-3.175-5.816h-3.865v5.816h-4.969v-19.386zM54.057 5.539c0-1.108-0.552-1.662-1.656-1.662h-5.521v5.816h5.522c1.104 0 1.656-0.554 1.656-1.662v-2.492z"></path>
<path d="M65.23 19.386h-5.383l7.316-19.386h5.522l7.316 19.386h-5.383l-1.242-3.462h-6.902l-1.242 3.462zM67.715 12.324h4.417l-2.209-6.508-2.209 6.508z"></path>
<path d="M0.085 30.714c1.156 0.086 2.068 0.129 2.734 0.129 0.085 0 0.157-0.029 0.214-0.086s0.085-0.129 0.085-0.214v-0.3h-1.837c-0.387 0-0.698-0.117-0.931-0.351s-0.35-0.546-0.35-0.934v-0.3c0-0.389 0.117-0.7 0.35-0.934s0.544-0.351 0.931-0.351h2.905v1.114h-2.393c-0.085 0-0.157 0.029-0.214 0.086s-0.085 0.129-0.085 0.214c0 0.086 0.028 0.157 0.085 0.214s0.128 0.086 0.214 0.086h1.538c0.387 0 0.698 0.117 0.931 0.351s0.35 0.546 0.35 0.934v0.343c0 0.389-0.117 0.7-0.35 0.934s-0.544 0.351-0.931 0.351c-1.008 0-2.091-0.057-3.247-0.171v-1.114z"></path>
<path d="M8.375 31.914c-0.553 0.057-1.094 0.086-1.624 0.086-0.387 0-0.698-0.117-0.931-0.351s-0.35-0.546-0.35-0.934v-2.186h-0.513v-1.157h0.513l0.171-1.029h1.325v1.029h1.068v1.157h-1.068v1.972c0 0.086 0.028 0.157 0.085 0.214s0.128 0.086 0.214 0.086h1.111v1.114z"></path>
<path d="M10.69 27.543v4.372h-1.495v-3.215h-0.641v-1.157h2.136zM9.194 25.828h1.495v1.2h-1.495v-1.2z"></path>
<path d="M15.563 31.829c-1.065 0.114-2.005 0.171-2.82 0.171-0.387 0-0.698-0.117-0.931-0.351s-0.35-0.546-0.35-0.934v-1.972c0-0.429 0.12-0.763 0.359-1.003 0.245-0.246 0.581-0.369 1.008-0.369h2.735v1.157h-2.265c-0.228 0-0.342 0.114-0.342 0.343v1.671c0 0.086 0.028 0.157 0.085 0.214s0.128 0.086 0.214 0.086c0.513 0 1.282-0.043 2.307-0.129v1.114z"></path>
<path d="M17.74 30.114v1.8h-1.495v-6h1.495v3.043h0.684l0.94-1.586h1.581l-1.282 2.186 1.282 2.357h-1.581l-0.983-1.8h-0.641z"></path>
<path d="M23.037 28.357c-0.228 0-0.342 0.114-0.342 0.343v0.471h1.453v-0.471c0-0.229-0.114-0.343-0.342-0.343h-0.769zM25.473 31.829c-1.1 0.114-2.096 0.171-2.991 0.171-0.387 0-0.698-0.117-0.931-0.351s-0.35-0.546-0.35-0.934v-2.057c0-0.429 0.12-0.763 0.359-1.003 0.245-0.246 0.581-0.369 1.008-0.369h1.709c0.427 0 0.76 0.123 1 0.369 0.245 0.24 0.367 0.574 0.367 1.003v1.586h-2.948v0.343c0 0.086 0.028 0.157 0.085 0.214s0.128 0.086 0.214 0.086c0.564 0 1.39-0.043 2.478-0.129v1.072z"></path>
<path d="M29.015 28.614c-0.359 0-0.729 0.086-1.111 0.257v3.043h-1.495v-4.543h1.324l0.085 0.557c0.49-0.429 1.003-0.643 1.538-0.643h0.385v1.329h-0.726z"></path>
<path d="M30.169 30.714c1.156 0.086 2.068 0.129 2.734 0.129 0.085 0 0.157-0.029 0.214-0.086s0.085-0.129 0.085-0.214v-0.3h-1.837c-0.387 0-0.698-0.117-0.931-0.351s-0.35-0.546-0.35-0.934v-0.3c0-0.389 0.117-0.7 0.35-0.934s0.544-0.351 0.931-0.351h2.905v1.114h-2.393c-0.085 0-0.157 0.029-0.214 0.086s-0.085 0.129-0.085 0.214c0 0.086 0.028 0.157 0.085 0.214s0.128 0.086 0.214 0.086h1.538c0.387 0 0.698 0.117 0.931 0.351s0.35 0.546 0.35 0.934v0.343c0 0.389-0.117 0.7-0.35 0.934s-0.544 0.351-0.931 0.351c-1.008 0-2.091-0.057-3.247-0.171v-1.114z"></path>
<path d="M41.875 31.829c-1.065 0.114-2.005 0.171-2.82 0.171-0.387 0-0.698-0.117-0.931-0.351s-0.35-0.546-0.35-0.934v-1.972c0-0.429 0.12-0.763 0.359-1.003 0.245-0.246 0.581-0.369 1.008-0.369h2.734v1.157h-2.265c-0.228 0-0.342 0.114-0.342 0.343v1.671c0 0.086 0.028 0.157 0.085 0.214s0.128 0.086 0.214 0.086c0.513 0 1.282-0.043 2.307-0.129v1.114z"></path>
<path d="M47.171 30.628c0 0.429-0.122 0.766-0.367 1.012-0.239 0.24-0.572 0.36-1 0.36h-1.965c-0.427 0-0.763-0.12-1.008-0.36-0.239-0.246-0.359-0.583-0.359-1.012v-1.972c0-0.429 0.12-0.763 0.359-1.003 0.245-0.246 0.581-0.369 1.008-0.369h1.965c0.427 0 0.761 0.123 1 0.369 0.245 0.24 0.367 0.574 0.367 1.003v1.972zM45.675 28.785c0-0.229-0.114-0.343-0.342-0.343h-1.025c-0.228 0-0.342 0.114-0.342 0.343v1.714c0 0.229 0.114 0.343 0.342 0.343h1.025c0.228 0 0.342-0.114 0.342-0.343v-1.714z"></path>
<path d="M50.246 31.914c-0.382 0.057-0.746 0.086-1.094 0.086-0.342 0-0.629-0.117-0.863-0.351s-0.35-0.546-0.35-0.934v-4.8h1.495v4.586c0 0.086 0.028 0.157 0.085 0.214s0.128 0.086 0.214 0.086h0.513v1.114z"></path>
<path d="M53.15 31.914c-0.382 0.057-0.746 0.086-1.094 0.086-0.342 0-0.629-0.117-0.863-0.351s-0.35-0.546-0.35-0.934v-4.8h1.495v4.586c0 0.086 0.028 0.157 0.085 0.214s0.128 0.086 0.214 0.086h0.513v1.114z"></path>
<path d="M55.499 28.357c-0.228 0-0.342 0.114-0.342 0.343v0.471h1.453v-0.471c0-0.229-0.114-0.343-0.342-0.343h-0.769zM57.934 31.829c-1.1 0.114-2.096 0.171-2.991 0.171-0.387 0-0.698-0.117-0.931-0.351s-0.35-0.546-0.35-0.934v-2.057c0-0.429 0.12-0.763 0.359-1.003 0.245-0.246 0.581-0.369 1.008-0.369h1.709c0.427 0 0.761 0.123 1 0.369 0.245 0.24 0.367 0.574 0.367 1.003v1.586h-2.948v0.343c0 0.086 0.028 0.157 0.085 0.214s0.128 0.086 0.214 0.086c0.564 0 1.39-0.043 2.478-0.129v1.072z"></path>
<path d="M62.887 31.829c-1.065 0.114-2.005 0.171-2.82 0.171-0.387 0-0.698-0.117-0.931-0.351s-0.35-0.546-0.35-0.934v-1.972c0-0.429 0.12-0.763 0.359-1.003 0.245-0.246 0.581-0.369 1.008-0.369h2.734v1.157h-2.265c-0.228 0-0.342 0.114-0.342 0.343v1.671c0 0.086 0.028 0.157 0.085 0.214s0.128 0.086 0.214 0.086c0.513 0 1.282-0.043 2.307-0.129v1.114z"></path>
<path d="M66.731 31.914c-0.553 0.057-1.094 0.086-1.624 0.086-0.387 0-0.698-0.117-0.931-0.351s-0.35-0.546-0.35-0.934v-2.186h-0.513v-1.157h0.513l0.171-1.029h1.324v1.029h1.068v1.157h-1.068v1.972c0 0.086 0.028 0.157 0.085 0.214s0.128 0.086 0.214 0.086h1.111v1.114z"></path>
<path d="M69.045 27.543v4.372h-1.495v-3.215h-0.641v-1.157h2.136zM67.55 25.828h1.495v1.2h-1.495v-1.2z"></path>
<path d="M74.517 30.628c0 0.429-0.122 0.766-0.367 1.012-0.239 0.24-0.573 0.36-1 0.36h-1.965c-0.427 0-0.763-0.12-1.008-0.36-0.239-0.246-0.359-0.583-0.359-1.012v-1.972c0-0.429 0.12-0.763 0.359-1.003 0.245-0.246 0.581-0.369 1.008-0.369h1.965c0.427 0 0.761 0.123 1 0.369 0.245 0.24 0.367 0.574 0.367 1.003v1.972zM73.022 28.785c0-0.229-0.114-0.343-0.342-0.343h-1.025c-0.228 0-0.342 0.114-0.342 0.343v1.714c0 0.229 0.114 0.343 0.342 0.343h1.025c0.228 0 0.342-0.114 0.342-0.343v-1.714z"></path>
<path d="M77.806 28.528c-0.302 0-0.644 0.057-1.025 0.171v3.215h-1.495v-4.543h1.324l0.086 0.429c0.268-0.177 0.541-0.306 0.82-0.386 0.285-0.086 0.524-0.129 0.718-0.129h0.384c0.387 0 0.698 0.117 0.932 0.351s0.35 0.546 0.35 0.934v3.343h-1.495v-3.086c0-0.086-0.028-0.157-0.085-0.214s-0.128-0.086-0.214-0.086h-0.299z"></path>
</symbol>
<symbol id="icon-account_balance_wallet" viewBox="0 0 32 32">
<path d="M28 24v4h-24v-24h24v4h-14.667v16h14.667zM16 21.333h13.333v-10.667h-13.333v10.667zM21.333 18c-1.107 0-2-0.893-2-2s0.893-2 2-2c1.107 0 2 0.893 2 2s-0.893 2-2 2z"></path>
</symbol>
</defs>
</svg>
